<?xml version="1.0" standalone="no"?>
<!DOCTYPE svg PUBLIC "-//W3C//DTD SVG 20010904//EN"
 "http://www.w3.org/TR/2001/REC-SVG-20010904/DTD/svg10.dtd">
<svg version="1.0" xmlns="http://www.w3.org/2000/svg"
 width="200.000000pt" height="200.000000pt" viewBox="0 0 200.000000 200.000000"
 preserveAspectRatio="xMidYMid meet">
<metadata>
Created by potrace 1.14, written by Peter Selinger 2001-2017
</metadata>
<g transform="translate(0.000000,200.000000) scale(0.100000,-0.100000)"
fill="#000000" stroke="none">
<path d="M671 1670 c-5 -3 -7 -28 -7 -56 1 -49 1 -50 -29 -53 -36 -4 -44 -3
-70 2 -11 2 -30 0 -42 -4 -13 -5 -23 -5 -23 -1 0 15 -52 5 -62 -11 -6 -12 -5
-17 4 -17 10 0 10 -2 1 -8 -7 -4 -9 -13 -4 -21 5 -7 6 -22 4 -32 -4 -14 -17
-19 -61 -21 l-56 -3 -2 -45 c0 -25 -2 -49 -2 -55 -1 -5 -21 -10 -44 -9 -24 1
-48 -1 -54 -3 -7 -2 -10 -111 -10 -336 l1 -332 40 -1 c22 -1 47 -2 56 -3 13
-1 17 -11 17 -43 -1 -69 -1 -68 46 -68 52 0 78 -8 70 -22 -8 -12 -12 -87 -5
-86 3 0 8 -1 11 -2 3 -1 52 -3 110 -3 l104 -2 0 -50 c0 -27 3 -52 7 -55 4 -3
155 -5 336 -5 l328 0 1 45 c1 25 2 50 3 56 1 7 36 11 107 10 81 -1 108 2 117
13 10 12 9 13 -3 6 -12 -7 -13 -6 -4 6 6 8 10 31 8 52 l-2 37 53 0 c59 0 62 3
60 68 -1 46 -2 44 71 44 l41 0 0 334 c-1 368 3 348 -63 340 -43 -6 -49 2 -49
59 l0 50 -57 3 -56 3 2 46 c1 25 -3 50 -9 57 -6 6 -34 10 -61 9 -142 -4 -154
-4 -155 8 -1 5 -2 15 -3 22 -1 6 2 18 7 25 6 8 6 12 -2 12 -6 0 -10 10 -8 22
l2 21 -328 1 c-181 1 -332 -1 -336 -4z"/>
</g>
</svg>
