<svg width="18" height="18" viewBox="0 0 18 18" fill="none" xmlns="http://www.w3.org/2000/svg">
<path fill-rule="evenodd" clip-rule="evenodd" d="M4.83301 9.20834C5.17819 9.20834 5.45801 9.48817 5.45801 9.83334L5.45801 13.1667C5.45801 13.5119 5.17819 13.7917 4.83301 13.7917C4.48783 13.7917 4.20801 13.5119 4.20801 13.1667L4.20801 9.83334C4.20801 9.48817 4.48783 9.20834 4.83301 9.20834Z" fill="#434956"/>
<path fill-rule="evenodd" clip-rule="evenodd" d="M9 4.20834C9.34518 4.20834 9.625 4.48817 9.625 4.83334L9.625 13.1667C9.625 13.5119 9.34518 13.7917 9 13.7917C8.65482 13.7917 8.375 13.5119 8.375 13.1667L8.375 4.83334C8.375 4.48817 8.65482 4.20834 9 4.20834Z" fill="#434956"/>
<path fill-rule="evenodd" clip-rule="evenodd" d="M13.166 7.54169C13.5112 7.54169 13.791 7.82151 13.791 8.16669L13.791 13.1667C13.791 13.5119 13.5112 13.7917 13.166 13.7917C12.8208 13.7917 12.541 13.5119 12.541 13.1667L12.541 8.16669C12.541 7.82151 12.8208 7.54169 13.166 7.54169Z" fill="#434956"/>
<path fill-rule="evenodd" clip-rule="evenodd" d="M8.95203 0.458344H9.04732C10.8729 0.458332 12.3068 0.458324 13.4263 0.608838C14.5735 0.763077 15.4837 1.08561 16.1989 1.80077C16.9141 2.51594 17.2366 3.42615 17.3908 4.57336C17.5414 5.69288 17.5414 7.12678 17.5413 8.95237V9.04765C17.5414 10.8732 17.5414 12.3071 17.3908 13.4267C17.2366 14.5739 16.9141 15.4841 16.1989 16.1993C15.4837 16.9144 14.5735 17.2369 13.4263 17.3912C12.3068 17.5417 10.8729 17.5417 9.04731 17.5417H8.95204C7.12644 17.5417 5.69254 17.5417 4.57303 17.3912C3.42581 17.2369 2.5156 16.9144 1.80044 16.1993C1.08527 15.4841 0.762742 14.5739 0.608503 13.4267C0.457988 12.3071 0.457997 10.8732 0.458008 9.04766V8.95236C0.457997 7.12678 0.457988 5.69288 0.608503 4.57336C0.762742 3.42615 1.08527 2.51594 1.80044 1.80077C2.5156 1.08561 3.42581 0.763077 4.57303 0.608838C5.69254 0.458324 7.12644 0.458332 8.95203 0.458344ZM4.73959 1.84769C3.73098 1.9833 3.12852 2.24045 2.68432 2.68465C2.24012 3.12886 1.98296 3.73132 1.84736 4.73992C1.70934 5.76651 1.70801 7.11637 1.70801 9.00001C1.70801 10.8837 1.70934 12.2335 1.84736 13.2601C1.98296 14.2687 2.24012 14.8712 2.68432 15.3154C3.12852 15.7596 3.73098 16.0167 4.73959 16.1523C5.76617 16.2903 7.11603 16.2917 8.99967 16.2917C10.8833 16.2917 12.2332 16.2903 13.2598 16.1523C14.2684 16.0167 14.8708 15.7596 15.315 15.3154C15.7592 14.8712 16.0164 14.2687 16.152 13.2601C16.29 12.2335 16.2913 10.8837 16.2913 9.00001C16.2913 7.11637 16.29 5.76651 16.152 4.73992C16.0164 3.73132 15.7592 3.12886 15.315 2.68465C14.8708 2.24045 14.2684 1.9833 13.2598 1.84769C12.2332 1.70967 10.8833 1.70834 8.99967 1.70834C7.11603 1.70834 5.76617 1.70967 4.73959 1.84769Z" fill="#434956"/>
</svg>
