<svg width="16" height="16" viewBox="0 0 16 16" fill="none" xmlns="http://www.w3.org/2000/svg">
<path d="M14.5136 1.48667C14.3136 1.28667 13.9869 1.28667 13.7869 1.48667L1.48691 13.7933C1.28691 13.9933 1.28691 14.32 1.48691 14.52C1.58691 14.6133 1.71358 14.6667 1.84691 14.6667C1.98025 14.6667 2.10691 14.6133 2.20691 14.5133L14.5136 2.20667C14.7202 2.00667 14.7202 1.68667 14.5136 1.48667Z" fill="#FE4A23"/>
<path d="M9.88001 2.34668V6.12001L6.12001 9.88001V8.85335H4.06001C3.12667 8.85335 2.86667 8.28001 3.48667 7.58001L8.00001 2.44668L8.53334 1.84001C9.27334 1.00001 9.88001 1.22668 9.88001 2.34668Z" fill="#FE4A23"/>
<path d="M12.5135 8.42L8.00012 13.5533L7.46678 14.16C6.72678 15 6.12012 14.7733 6.12012 13.6533V11.88L10.8535 7.14667H11.9401C12.8734 7.14667 13.1335 7.72 12.5135 8.42Z" fill="#FE4A23"/>
</svg>
