<svg width="14" height="14" viewBox="0 0 14 14" fill="none" xmlns="http://www.w3.org/2000/svg">
<path fill-rule="evenodd" clip-rule="evenodd" d="M1.1312 5.17142C1.40479 5.20889 1.59619 5.46106 1.55872 5.73465C1.52006 6.01688 1.5 6.30584 1.5 6.60013C1.5 9.88949 3.99234 12.5001 7 12.5001C10.0077 12.5001 12.5 9.88949 12.5 6.60013C12.5 6.30584 12.4799 6.01688 12.4413 5.73465C12.4038 5.46106 12.5952 5.2089 12.8688 5.17142C13.1424 5.13394 13.3946 5.32535 13.432 5.59894C13.4768 5.92605 13.5 6.26036 13.5 6.60013C13.5 10.38 10.6198 13.5001 7 13.5001C3.38024 13.5001 0.5 10.38 0.5 6.60013C0.5 6.26036 0.523161 5.92605 0.567969 5.59894C0.605445 5.32535 0.857612 5.13394 1.1312 5.17142Z" fill="#0937C3"/>
<path fill-rule="evenodd" clip-rule="evenodd" d="M6.99967 0.50013C7.27582 0.50013 7.49967 0.723987 7.49967 1.00013L7.49967 6.64141C7.50102 6.63983 7.50237 6.63824 7.50371 6.63665C7.64417 6.47089 7.7817 6.2957 7.91032 6.13188C7.92031 6.11916 7.93024 6.1065 7.94012 6.09393C8.06827 5.93077 8.20309 5.75936 8.3078 5.65164C8.50027 5.45362 8.81682 5.44912 9.01484 5.64159C9.21285 5.83406 9.21735 6.15061 9.02488 6.34862C8.96575 6.40946 8.86867 6.53067 8.72654 6.71162C8.71624 6.72474 8.70577 6.73807 8.69516 6.75159C8.56844 6.91302 8.4198 7.10238 8.26665 7.28312C8.10252 7.47683 7.9188 7.67802 7.73515 7.83444C7.64312 7.91282 7.53939 7.99014 7.42779 8.04985C7.32017 8.10745 7.17187 8.1668 6.99967 8.1668C6.82748 8.1668 6.67918 8.10745 6.57156 8.04985C6.45996 7.99014 6.35623 7.91282 6.2642 7.83444C6.08055 7.67802 5.89683 7.47683 5.7327 7.28312C5.57954 7.10237 5.43089 6.91299 5.30417 6.75156C5.29356 6.73805 5.2831 6.72473 5.27281 6.71162C5.13068 6.53067 5.0336 6.40946 4.97447 6.34862C4.782 6.15061 4.7865 5.83406 4.98451 5.64159C5.18253 5.44912 5.49908 5.45362 5.69155 5.65164C5.79626 5.75936 5.93108 5.93077 6.05923 6.09393C6.06911 6.10651 6.07905 6.11917 6.08904 6.1319C6.21765 6.29571 6.35518 6.47089 6.49564 6.63665C6.49698 6.63824 6.49833 6.63983 6.49967 6.64142L6.49967 1.00013C6.49967 0.723987 6.72353 0.50013 6.99967 0.50013Z" fill="#0937C3"/>
</svg>
