<svg width="18" height="18" viewBox="0 0 18 18" fill="none" xmlns="http://www.w3.org/2000/svg">
<path fill-rule="evenodd" clip-rule="evenodd" d="M17.1093 0.891341C17.3533 1.13542 17.3533 1.53115 17.1093 1.77522L10.2759 8.60856C10.0318 8.85263 9.63612 8.85263 9.39204 8.60856C9.14796 8.36448 9.14796 7.96875 9.39204 7.72467L16.2254 0.891341C16.4695 0.647263 16.8652 0.647263 17.1093 0.891341Z" fill="#3B6AF6"/>
<path fill-rule="evenodd" clip-rule="evenodd" d="M12.709 0.666626C12.709 0.321448 12.9888 0.041626 13.334 0.041626H17.334C17.6792 0.041626 17.959 0.321448 17.959 0.666626V4.66663C17.959 5.0118 17.6792 5.29163 17.334 5.29163C16.9888 5.29163 16.709 5.0118 16.709 4.66663V1.29163H13.334C12.9888 1.29163 12.709 1.0118 12.709 0.666626Z" fill="#3B6AF6"/>
<path fill-rule="evenodd" clip-rule="evenodd" d="M1.57922 1.57888C2.69127 0.466824 4.35535 0.0416565 6.50033 0.0416565H8.16699C8.51217 0.0416565 8.79199 0.321479 8.79199 0.666656C8.79199 1.01183 8.51217 1.29166 8.16699 1.29166H6.50033C4.47864 1.29166 3.22604 1.69982 2.4631 2.46276C1.70016 3.22571 1.29199 4.4783 1.29199 6.49999V11.5C1.29199 13.5217 1.70016 14.7743 2.4631 15.5372C3.22604 16.3002 4.47864 16.7083 6.50033 16.7083H11.5003C13.522 16.7083 14.7746 16.3002 15.5375 15.5372C16.3005 14.7743 16.7087 13.5217 16.7087 11.5V9.83332C16.7087 9.48814 16.9885 9.20832 17.3337 9.20832C17.6788 9.20832 17.9587 9.48814 17.9587 9.83332V11.5C17.9587 13.645 17.5335 15.309 16.4214 16.4211C15.3094 17.5332 13.6453 17.9583 11.5003 17.9583H6.50033C4.35535 17.9583 2.69127 17.5332 1.57922 16.4211C0.46716 15.309 0.0419922 13.645 0.0419922 11.5V6.49999C0.0419922 4.35501 0.46716 2.69094 1.57922 1.57888Z" fill="#3B6AF6"/>
</svg>
