<svg width="18" height="18" viewBox="0 0 18 18" fill="none" xmlns="http://www.w3.org/2000/svg">
<path fill-rule="evenodd" clip-rule="evenodd" d="M8.10644 0.458345C8.12221 0.458346 8.13802 0.458346 8.15389 0.458346L9.89349 0.458345C10.6285 0.458313 11.2475 0.458287 11.7275 0.527188C12.2317 0.599576 12.7156 0.764572 13.0507 1.20471C13.3195 1.55768 13.3923 1.95748 13.3716 2.36499C13.3542 2.70973 13.0605 2.97502 12.7158 2.95754C12.3711 2.94007 12.1058 2.64644 12.1232 2.3017C12.134 2.09006 12.094 2.01161 12.0562 1.96198C12.0106 1.90212 11.9163 1.81712 11.5498 1.7645C11.1694 1.70988 10.6413 1.70835 9.84604 1.70835H8.15389C7.35865 1.70835 6.83058 1.70988 6.45009 1.7645C6.08359 1.81712 5.98929 1.90212 5.94371 1.96198C5.90592 2.01161 5.86597 2.09006 5.8767 2.3017C5.89417 2.64644 5.62888 2.94007 5.28414 2.95754C4.93941 2.97502 4.64578 2.70973 4.6283 2.36499C4.60764 1.95748 4.68043 1.55768 4.94921 1.20471C5.28436 0.764572 5.76821 0.599576 6.27246 0.527188C6.75243 0.458287 7.37139 0.458313 8.10644 0.458345Z" fill="#434956"/>
<path fill-rule="evenodd" clip-rule="evenodd" d="M6.86013 3.79169H11.1387C12.106 3.79166 12.9028 3.79164 13.5156 3.8834C14.1567 3.97941 14.7296 4.19357 15.1155 4.73052C15.2999 4.98703 15.4066 5.2702 15.4512 5.57654C15.501 5.91811 15.2645 6.23536 14.9229 6.28515C14.5813 6.33494 14.2641 6.09841 14.2143 5.75684C14.1959 5.63047 14.1577 5.53956 14.1005 5.46004C13.9987 5.31839 13.8223 5.19326 13.3305 5.11962C12.8212 5.04336 12.1189 5.04169 11.0874 5.04169H6.91146C5.87994 5.04169 5.17763 5.04336 4.66837 5.11962C4.17659 5.19326 4.00015 5.31839 3.89836 5.46004C3.8412 5.53956 3.80298 5.63047 3.78456 5.75684C3.73477 6.09841 3.41752 6.33494 3.07595 6.28515C2.73438 6.23536 2.49784 5.91811 2.54763 5.57654C2.59229 5.2702 2.69896 4.98703 2.88331 4.73052C3.26922 4.19357 3.84212 3.97941 4.48325 3.8834C5.09607 3.79164 5.89288 3.79166 6.86013 3.79169Z" fill="#434956"/>
<path fill-rule="evenodd" clip-rule="evenodd" d="M5.24576 7.125H12.754C13.7322 7.12497 14.5371 7.12495 15.1555 7.21721C15.8015 7.31359 16.3787 7.52849 16.7662 8.06863C17.1514 8.60571 17.1763 9.22406 17.0716 9.8744C16.9707 10.5006 16.7273 11.2804 16.4301 12.2327L15.8162 14.1996C15.4432 15.3945 15.0515 16.302 14.3099 16.8608C13.5641 17.4228 12.5865 17.5417 11.3247 17.5417H6.67511C5.41331 17.5417 4.43567 17.4228 3.68982 16.8608C2.94829 16.302 2.55657 15.3945 2.18361 14.1996L1.56971 12.2327C1.27246 11.2804 1.02903 10.5006 0.928178 9.87439C0.823432 9.22405 0.84835 8.60571 1.23359 8.06863C1.62102 7.52849 2.19825 7.31359 2.84429 7.21721C3.46268 7.12495 4.26753 7.12497 5.24576 7.125ZM3.02873 8.45352C2.53038 8.52787 2.35172 8.65442 2.24931 8.7972C2.14471 8.94303 2.07963 9.16251 2.16227 9.67563C2.24713 10.2025 2.46204 10.8962 2.77777 11.9078L3.37684 13.8271C3.75015 15.0232 4.05047 15.5674 4.4421 15.8625C4.82943 16.1544 5.42609 16.2917 6.67511 16.2917H11.3247C12.5737 16.2917 13.1703 16.1544 13.5577 15.8625C13.9493 15.5674 14.2496 15.0232 14.6229 13.8271L15.222 11.9078C15.5377 10.8962 15.7526 10.2025 15.8375 9.67563C15.9201 9.16251 15.8551 8.94303 15.7505 8.7972C15.648 8.65442 15.4694 8.52787 14.971 8.45352C14.4558 8.37666 13.7451 8.375 12.7027 8.375H5.29707C4.25464 8.375 3.54394 8.37666 3.02873 8.45352Z" fill="#434956"/>
</svg>
