<svg width="18" height="18" viewBox="0 0 18 18" fill="none" xmlns="http://www.w3.org/2000/svg">
<path fill-rule="evenodd" clip-rule="evenodd" d="M2.33301 7.54167C2.67819 7.54167 2.95801 7.82149 2.95801 8.16667V11.5C2.95801 12.8926 2.95934 13.8742 3.05922 14.6171C3.15669 15.342 3.33757 15.7455 3.62922 16.0371C3.92088 16.3288 4.3243 16.5097 5.04925 16.6071C5.79217 16.707 6.77374 16.7083 8.16634 16.7083H9.83301C11.2256 16.7083 12.2072 16.707 12.9501 16.6071C13.675 16.5097 14.0785 16.3288 14.3701 16.0371C14.6618 15.7455 14.8427 15.342 14.9401 14.6171C15.04 13.8742 15.0413 12.8926 15.0413 11.5V8.16667C15.0413 7.82149 15.3212 7.54167 15.6663 7.54167C16.0115 7.54167 16.2913 7.82149 16.2913 8.16667V11.5465C16.2914 12.882 16.2914 13.9478 16.179 14.7837C16.0629 15.6472 15.8166 16.3584 15.254 16.921C14.6914 17.4836 13.9802 17.7299 13.1167 17.846C12.2808 17.9584 11.215 17.9584 9.87946 17.9583H8.11989C6.78439 17.9584 5.71859 17.9584 4.88269 17.846C4.01913 17.7299 3.30796 17.4836 2.74534 16.921C2.18272 16.3584 1.93647 15.6472 1.82037 14.7837C1.70798 13.9478 1.70799 12.882 1.70801 11.5465L1.70801 8.16667C1.70801 7.82149 1.98783 7.54167 2.33301 7.54167Z" fill="#434956"/>
<path fill-rule="evenodd" clip-rule="evenodd" d="M3.5609 4.20834H14.4391C14.8094 4.20834 15.1206 4.20833 15.3743 4.22673C15.6377 4.24582 15.8934 4.28737 16.1371 4.39992C16.4131 4.52739 16.6597 4.71863 16.8393 4.96759C17.0091 5.20284 17.0725 5.45626 17.1001 5.69969C17.1251 5.92006 17.125 6.18431 17.125 6.47003V6.52999C17.125 6.81571 17.1251 7.07996 17.1001 7.30034C17.0725 7.54377 17.0091 7.79718 16.8393 8.03243C16.6597 8.28139 16.4131 8.47263 16.1371 8.6001C15.8934 8.71265 15.6377 8.7542 15.3743 8.77329C15.1206 8.79169 14.8094 8.79169 14.4391 8.79168H3.5609C3.19059 8.79169 2.87941 8.79169 2.62568 8.77329C2.36233 8.7542 2.10661 8.71265 1.86293 8.6001C1.58695 8.47263 1.34034 8.28139 1.16067 8.03243C0.990894 7.79718 0.927489 7.54377 0.89991 7.30034C0.874944 7.07996 0.874972 6.81571 0.875002 6.52999C0.875003 6.52002 0.875004 6.51003 0.875004 6.50001C0.875004 6.48999 0.875003 6.48 0.875002 6.47004C0.874972 6.18431 0.874944 5.92006 0.89991 5.69969C0.927489 5.45626 0.990894 5.20284 1.16067 4.96759C1.34034 4.71863 1.58695 4.52739 1.86293 4.39992C2.10661 4.28737 2.36233 4.24582 2.62568 4.22673C2.87941 4.20833 3.19058 4.20834 3.5609 4.20834ZM2.71608 5.47345C2.51749 5.48785 2.43346 5.51329 2.38708 5.53472C2.28301 5.58279 2.21402 5.64402 2.17428 5.6991C2.17298 5.70089 2.16944 5.70577 2.16434 5.72125C2.15809 5.74027 2.14928 5.77586 2.14196 5.8404C2.12594 5.98189 2.125 6.17415 2.125 6.50001C2.125 6.82588 2.12594 7.01813 2.14196 7.15962C2.14928 7.22416 2.15809 7.25975 2.16434 7.27877C2.16944 7.29425 2.17287 7.29898 2.17417 7.30077C2.21391 7.35585 2.28301 7.41723 2.38708 7.4653C2.43346 7.48673 2.51749 7.51217 2.71608 7.52657C2.91917 7.54129 3.18469 7.54168 3.58334 7.54168H14.4167C14.8153 7.54168 15.0808 7.54129 15.2839 7.52657C15.4825 7.51217 15.5665 7.48673 15.6129 7.4653C15.717 7.41723 15.786 7.356 15.8257 7.30092C15.8269 7.29925 15.8304 7.29471 15.8357 7.27877C15.8419 7.25975 15.8507 7.22416 15.858 7.15962C15.8741 7.01813 15.875 6.82588 15.875 6.50001C15.875 6.17415 15.8741 5.98189 15.858 5.8404C15.8507 5.77586 15.8419 5.74027 15.8357 5.72125C15.8306 5.70577 15.8271 5.70104 15.8258 5.69925C15.7861 5.64417 15.717 5.58279 15.6129 5.53472C15.5665 5.51329 15.4825 5.48785 15.2839 5.47345C15.0808 5.45873 14.8153 5.45834 14.4167 5.45834H3.58334C3.18469 5.45834 2.91917 5.45873 2.71608 5.47345Z" fill="#434956"/>
<path fill-rule="evenodd" clip-rule="evenodd" d="M3.375 2.15477C3.375 0.987736 4.32107 0.0416718 5.4881 0.0416718H5.78571C7.90609 0.0416718 9.625 1.76058 9.625 3.88096V4.83334C9.625 5.17852 9.34518 5.45834 9 5.45834H6.67857C4.85406 5.45834 3.375 3.97928 3.375 2.15477ZM5.4881 1.29167C5.01142 1.29167 4.625 1.67809 4.625 2.15477C4.625 3.28892 5.54442 4.20834 6.67857 4.20834H8.375V3.88096C8.375 2.45093 7.21574 1.29167 5.78571 1.29167H5.4881Z" fill="#434956"/>
<path fill-rule="evenodd" clip-rule="evenodd" d="M8.375 3.88096C8.375 1.76058 10.0939 0.0416718 12.2143 0.0416718H12.5119C13.6789 0.0416718 14.625 0.987736 14.625 2.15477C14.625 3.97928 13.1459 5.45834 11.3214 5.45834H9C8.65482 5.45834 8.375 5.17852 8.375 4.83334V3.88096ZM12.2143 1.29167C10.7843 1.29167 9.625 2.45093 9.625 3.88096V4.20834H11.3214C12.4556 4.20834 13.375 3.28892 13.375 2.15477C13.375 1.67809 12.9886 1.29167 12.5119 1.29167H12.2143Z" fill="#434956"/>
<path fill-rule="evenodd" clip-rule="evenodd" d="M9 7.54167C9.34518 7.54167 9.625 7.82149 9.625 8.16667L9.625 17.3333C9.625 17.6785 9.34518 17.9583 9 17.9583C8.65482 17.9583 8.375 17.6785 8.375 17.3333L8.375 8.16667C8.375 7.82149 8.65482 7.54167 9 7.54167Z" fill="#434956"/>
</svg>
