<svg width="18" height="18" viewBox="0 0 18 18" fill="none" xmlns="http://www.w3.org/2000/svg">
<path fill-rule="evenodd" clip-rule="evenodd" d="M9.00033 1.29166C4.74313 1.29166 1.29199 4.74279 1.29199 8.99999C1.29199 13.2572 4.74313 16.7083 9.00033 16.7083C13.2575 16.7083 16.7087 13.2572 16.7087 8.99999C16.7087 4.74279 13.2575 1.29166 9.00033 1.29166ZM0.0419922 8.99999C0.0419922 4.05244 4.05277 0.0416565 9.00033 0.0416565C13.9479 0.0416565 17.9587 4.05244 17.9587 8.99999C17.9587 13.9475 13.9479 17.9583 9.00033 17.9583C4.05277 17.9583 0.0419922 13.9475 0.0419922 8.99999Z" fill="#434956"/>
<path fill-rule="evenodd" clip-rule="evenodd" d="M9.00065 5.45831C8.42535 5.45831 7.95898 5.92468 7.95898 6.49998C7.95898 6.84516 7.67916 7.12498 7.33398 7.12498C6.98881 7.12498 6.70898 6.84516 6.70898 6.49998C6.70898 5.23433 7.735 4.20831 9.00065 4.20831C10.2663 4.20831 11.2923 5.23433 11.2923 6.49998C11.2923 6.95526 11.1589 7.38129 10.9288 7.73884C10.7847 7.96279 10.6163 8.1766 10.4609 8.36967C10.4325 8.40499 10.4046 8.43956 10.3771 8.47353C10.2482 8.63307 10.1299 8.77952 10.0205 8.92979C9.75089 9.30039 9.62565 9.57889 9.62565 9.83331V10.25C9.62565 10.5952 9.34583 10.875 9.00065 10.875C8.65547 10.875 8.37565 10.5952 8.37565 10.25V9.83331C8.37565 9.16726 8.70266 8.61646 9.00978 8.19436C9.13956 8.016 9.28177 7.84009 9.41107 7.68014C9.43697 7.6481 9.46236 7.6167 9.48702 7.58605C9.64135 7.39426 9.77272 7.22552 9.87765 7.06244C9.98182 6.90055 10.0423 6.70828 10.0423 6.49998C10.0423 5.92468 9.57595 5.45831 9.00065 5.45831Z" fill="#434956"/>
<path fill-rule="evenodd" clip-rule="evenodd" d="M8.16016 13.1666C8.16016 12.7064 8.53325 12.3333 8.99349 12.3333H9.00097C9.46121 12.3333 9.83431 12.7064 9.83431 13.1666C9.83431 13.6269 9.46121 14 9.00097 14H8.99349C8.53325 14 8.16016 13.6269 8.16016 13.1666Z" fill="#434956"/>
</svg>
