<svg width="18" height="18" viewBox="0 0 18 18" fill="none" xmlns="http://www.w3.org/2000/svg">
<path fill-rule="evenodd" clip-rule="evenodd" d="M1.98624 5.87499C3.18101 3.17212 5.85917 1.29166 9.00062 1.29166C13.2578 1.29166 16.709 4.74279 16.709 8.99999C16.709 13.2572 13.2578 16.7083 9.00066 16.7083C8.65548 16.7083 8.37566 16.9881 8.37566 17.3333C8.37566 17.6785 8.65548 17.9583 9.00066 17.9583C13.9482 17.9583 17.959 13.9475 17.959 8.99999C17.959 4.05244 13.9482 0.0416565 9.00062 0.0416565C4.98535 0.0416565 1.6281 2.68183 0.487708 6.31271C0.428083 6.50255 0.462417 6.70943 0.580166 6.86984C0.697915 7.03024 0.885007 7.12499 1.08399 7.12499H3.16732C3.5125 7.12499 3.79232 6.84517 3.79232 6.49999C3.79232 6.15481 3.5125 5.87499 3.16732 5.87499H1.98624Z" fill="#434956"/>
<path fill-rule="evenodd" clip-rule="evenodd" d="M9 5.04166C9.34518 5.04166 9.625 5.32148 9.625 5.66666V8.74111L11.1086 10.2247C11.3527 10.4688 11.3527 10.8645 11.1086 11.1086C10.8645 11.3527 10.4688 11.3527 10.2247 11.1086L8.55806 9.44193C8.44085 9.32472 8.375 9.16575 8.375 8.99999V5.66666C8.375 5.32148 8.65482 5.04166 9 5.04166Z" fill="#434956"/>
<path fill-rule="evenodd" clip-rule="evenodd" d="M0.666992 8.375C1.01217 8.375 1.29199 8.65482 1.29199 9C1.29199 9.26229 1.30382 9.5215 1.3269 9.77711C1.35796 10.1209 1.10444 10.4247 0.760666 10.4558C0.416887 10.4869 0.113026 10.2333 0.081973 9.88956C0.0555105 9.5966 0.0419922 9.29987 0.0419922 9C0.0419922 8.65482 0.321814 8.375 0.666992 8.375ZM1.02583 11.6203C1.34885 11.4986 1.70934 11.6619 1.83102 11.9849C1.94692 12.2926 2.0802 12.591 2.22956 12.8788C2.38857 13.1851 2.2691 13.5624 1.96273 13.7214C1.65636 13.8804 1.27909 13.7609 1.12008 13.4546C0.948032 13.1231 0.794608 12.7795 0.661253 12.4255C0.539579 12.1025 0.702803 11.742 1.02583 11.6203ZM2.60116 14.6307C2.85415 14.3958 3.2496 14.4106 3.48443 14.6636C3.72068 14.9181 3.97259 15.1562 4.23842 15.3762C4.50435 15.5963 4.54152 15.9902 4.32145 16.2562C4.10138 16.5221 3.7074 16.5593 3.44148 16.3392C3.13316 16.084 2.84146 15.8083 2.56826 15.5139C2.33344 15.2609 2.34816 14.8655 2.60116 14.6307ZM5.09873 16.7463C5.24243 16.4324 5.61335 16.2945 5.92719 16.4382C6.17688 16.5525 6.43334 16.6533 6.69573 16.7397C7.02361 16.8476 7.20191 17.2009 7.09399 17.5287C6.98607 17.8566 6.63279 18.0349 6.30492 17.927C5.99799 17.826 5.69829 17.7082 5.4068 17.5747C5.09295 17.431 4.95503 17.0601 5.09873 16.7463Z" fill="#434956"/>
</svg>
