<svg width="21" height="21" viewBox="0 0 21 21" fill="none" xmlns="http://www.w3.org/2000/svg">
<rect x="0.5" y="0.5" width="20" height="20" rx="10" fill="url(#paint0_linear_3216_7280)"/>
<path d="M8.8356 10.5256C8.8356 9.6043 9.58201 8.85728 10.503 8.85728C11.424 8.85728 12.1708 9.6043 12.1708 10.5256C12.1708 11.4468 11.424 12.1938 10.503 12.1938C9.58201 12.1938 8.8356 11.4468 8.8356 10.5256ZM7.93402 10.5256C7.93402 11.9448 9.08415 13.0953 10.503 13.0953C11.9219 13.0953 13.072 11.9448 13.072 10.5256C13.072 9.1063 11.9219 7.95584 10.503 7.95584C9.08415 7.95584 7.93402 9.1063 7.93402 10.5256ZM12.5733 7.85395C12.5733 7.97272 12.6084 8.08885 12.6744 8.18763C12.7403 8.28641 12.834 8.36342 12.9437 8.40892C13.0534 8.45442 13.1741 8.46636 13.2906 8.44323C13.407 8.42011 13.514 8.36295 13.598 8.279C13.682 8.19505 13.7392 8.08807 13.7625 7.97158C13.7857 7.8551 13.7738 7.73435 13.7284 7.6246C13.683 7.51485 13.6061 7.42103 13.5074 7.355C13.4087 7.28897 13.2927 7.2537 13.1739 7.25366H13.1737C13.0145 7.25373 12.8619 7.31699 12.7493 7.42955C12.6368 7.5421 12.5735 7.69474 12.5733 7.85395ZM8.48179 14.5991C7.99402 14.5768 7.7289 14.4956 7.55271 14.4269C7.31913 14.3359 7.15247 14.2276 6.97725 14.0526C6.80202 13.8775 6.69356 13.711 6.60302 13.4773C6.53434 13.3012 6.45309 13.0359 6.43092 12.548C6.40666 12.0205 6.40182 11.862 6.40182 10.5256C6.40182 9.18918 6.40706 9.03116 6.43092 8.50321C6.45313 8.01529 6.53498 7.75054 6.60302 7.57386C6.69396 7.34021 6.80226 7.17351 6.97725 6.99823C7.15223 6.82295 7.31873 6.71446 7.55271 6.6239C7.72882 6.5552 7.99402 6.47392 8.48179 6.45174C9.00914 6.42748 9.16756 6.42264 10.503 6.42264C11.8384 6.42264 11.997 6.42788 12.5248 6.45174C13.0126 6.47396 13.2773 6.55584 13.4539 6.6239C13.6875 6.71446 13.8541 6.82319 14.0294 6.99823C14.2046 7.17327 14.3126 7.34021 14.4036 7.57386C14.4723 7.75002 14.5535 8.01529 14.5757 8.50321C14.5999 9.03116 14.6048 9.18918 14.6048 10.5256C14.6048 11.862 14.5999 12.0201 14.5757 12.548C14.5535 13.0359 14.4718 13.3011 14.4036 13.4773C14.3126 13.711 14.2043 13.8777 14.0294 14.0526C13.8544 14.2275 13.6875 14.3359 13.4539 14.4269C13.2778 14.4956 13.0126 14.5769 12.5248 14.5991C11.9975 14.6233 11.839 14.6282 10.503 14.6282C9.16696 14.6282 9.00898 14.6233 8.48179 14.5991ZM8.44036 5.55143C7.90776 5.57569 7.54383 5.66016 7.226 5.78387C6.89684 5.91162 6.61819 6.08302 6.33974 6.3611C6.0613 6.63919 5.89039 6.91836 5.76268 7.24761C5.639 7.56573 5.55455 7.92958 5.5303 8.46233C5.50564 8.99592 5.5 9.16652 5.5 10.5256C5.5 11.8846 5.50564 12.0552 5.5303 12.5888C5.55455 13.1216 5.639 13.4854 5.76268 13.8035C5.89039 14.1326 6.06134 14.4121 6.33974 14.69C6.61815 14.968 6.89684 15.1391 7.226 15.2673C7.54443 15.391 7.90776 15.4754 8.44036 15.4997C8.97408 15.524 9.14435 15.53 10.503 15.53C11.8617 15.53 12.0322 15.5244 12.5656 15.4997C13.0983 15.4754 13.462 15.391 13.78 15.2673C14.109 15.1391 14.3878 14.9681 14.6663 14.69C14.9447 14.4119 15.1152 14.1326 15.2433 13.8035C15.367 13.4854 15.4518 13.1215 15.4757 12.5888C15.5 12.0548 15.5056 11.8846 15.5056 10.5256C15.5056 9.16652 15.5 8.99592 15.4757 8.46233C15.4514 7.92954 15.367 7.56553 15.2433 7.24761C15.1152 6.91856 14.9443 6.63963 14.6663 6.3611C14.3883 6.08258 14.109 5.91162 13.7804 5.78387C13.462 5.66016 13.0982 5.57529 12.566 5.55143C12.0326 5.52716 11.8621 5.52112 10.5034 5.52112C9.14475 5.52112 8.97408 5.52676 8.44036 5.55143Z" fill="white"/>
<defs>
<linearGradient id="paint0_linear_3216_7280" x1="20.1156" y1="20.5" x2="0.115601" y2="0.499999" gradientUnits="userSpaceOnUse">
<stop stop-color="#FBE18A"/>
<stop offset="0.21" stop-color="#FCBB45"/>
<stop offset="0.38" stop-color="#F75274"/>
<stop offset="0.52" stop-color="#D53692"/>
<stop offset="0.74" stop-color="#8F39CE"/>
<stop offset="1" stop-color="#5B4FE9"/>
</linearGradient>
</defs>
</svg>
