<svg width="18" height="18" viewBox="0 0 18 18" fill="none" xmlns="http://www.w3.org/2000/svg">
<path fill-rule="evenodd" clip-rule="evenodd" d="M3.97414 0.875H4.02651C4.58766 0.874993 5.04658 0.874987 5.41955 0.90546C5.8056 0.937001 6.15427 1.00428 6.47988 1.17019C6.98949 1.42985 7.40381 1.84417 7.66347 2.35378C7.82938 2.67939 7.89666 3.02806 7.9282 3.41411C7.95867 3.78708 7.95867 4.24599 7.95866 4.80714V13.1929C7.95867 13.754 7.95867 14.2129 7.9282 14.5859C7.89666 14.9719 7.82938 15.3206 7.66347 15.6462C7.40381 16.1558 6.98949 16.5702 6.47988 16.8298C6.15427 16.9957 5.8056 17.063 5.41955 17.0945C5.04658 17.125 4.58767 17.125 4.02652 17.125H3.97413C3.41299 17.125 2.95407 17.125 2.5811 17.0945C2.19505 17.063 1.84639 16.9957 1.52077 16.8298C1.01116 16.5702 0.59684 16.1558 0.337183 15.6462C0.171273 15.3206 0.103994 14.9719 0.072452 14.5859C0.0419791 14.2129 0.0419851 13.754 0.0419924 13.1929V4.80715C0.0419851 4.246 0.0419791 3.78708 0.072452 3.41411C0.103994 3.02806 0.171273 2.67939 0.337183 2.35378C0.59684 1.84417 1.01116 1.42985 1.52077 1.17019C1.84639 1.00428 2.19505 0.937001 2.5811 0.90546C2.95407 0.874987 3.413 0.874993 3.97414 0.875ZM2.68289 2.15131C2.37414 2.17653 2.20829 2.22279 2.08826 2.28395C1.81385 2.42376 1.59076 2.64686 1.45094 2.92126C1.38978 3.0413 1.34353 3.20715 1.3183 3.5159C1.29248 3.83195 1.29199 4.23963 1.29199 4.83333V13.1667C1.29199 13.7604 1.29248 14.1681 1.3183 14.4841C1.34353 14.7928 1.38978 14.9587 1.45094 15.0787C1.59076 15.3531 1.81385 15.5762 2.08826 15.7161C2.20829 15.7772 2.37414 15.8235 2.68289 15.8487C2.99894 15.8745 3.40663 15.875 4.00033 15.875C4.59403 15.875 5.00171 15.8745 5.31776 15.8487C5.62651 15.8235 5.79236 15.7772 5.9124 15.7161C6.1868 15.5762 6.40989 15.3531 6.54971 15.0787C6.61087 14.9587 6.65713 14.7929 6.68235 14.4841C6.70817 14.1681 6.70866 13.7604 6.70866 13.1667V4.83333C6.70866 4.23963 6.70817 3.83195 6.68235 3.5159C6.65713 3.20715 6.61087 3.0413 6.54971 2.92126C6.4099 2.64686 6.1868 2.42376 5.9124 2.28395C5.79236 2.22279 5.62651 2.17653 5.31776 2.15131C5.00171 2.12549 4.59403 2.125 4.00033 2.125C3.40662 2.125 2.99894 2.12549 2.68289 2.15131Z" fill="#434956"/>
<path fill-rule="evenodd" clip-rule="evenodd" d="M3.16699 13.1667C3.16699 12.7064 3.54009 12.3333 4.00033 12.3333H4.00781C4.46805 12.3333 4.84114 12.7064 4.84114 13.1667C4.84114 13.6269 4.46805 14 4.00781 14H4.00033C3.54009 14 3.16699 13.6269 3.16699 13.1667Z" fill="#434956"/>
<path fill-rule="evenodd" clip-rule="evenodd" d="M0.0419922 4.83334C0.0419922 4.48817 0.321814 4.20834 0.666992 4.20834H7.33366C7.67884 4.20834 7.95866 4.48817 7.95866 4.83334C7.95866 5.17852 7.67884 5.45834 7.33366 5.45834H0.666992C0.321814 5.45834 0.0419922 5.17852 0.0419922 4.83334Z" fill="#434956"/>
<path fill-rule="evenodd" clip-rule="evenodd" d="M12.2634 2.16887C11.9586 2.22465 11.5735 2.32776 11.0116 2.47894C10.4497 2.63013 10.0649 2.73419 9.77315 2.83891C9.4884 2.94113 9.34506 3.02653 9.24873 3.11363C9.02645 3.3146 8.87288 3.58143 8.81051 3.87608C8.78338 4.00425 8.78149 4.17244 8.8358 4.47167C8.89141 4.77807 8.99419 5.1651 9.14471 5.72921L11.257 13.6454C11.4076 14.2095 11.5113 14.5963 11.6157 14.8895C11.7176 15.176 11.8029 15.3204 11.8899 15.4174C12.0901 15.6407 12.3553 15.7943 12.6471 15.8566C12.7734 15.8835 12.9397 15.8856 13.2373 15.8311C13.542 15.7753 13.9271 15.6722 14.489 15.521C15.0509 15.3699 15.4357 15.2658 15.7275 15.1611C16.0122 15.0589 16.1556 14.9735 16.2519 14.8864C16.4742 14.6854 16.6278 14.4186 16.6901 14.1239C16.7173 13.9957 16.7191 13.8275 16.6648 13.5283C16.6092 13.2219 16.5064 12.8349 16.3559 12.2708L14.2436 4.35457C14.0931 3.79045 13.9894 3.40368 13.885 3.11043C13.783 2.82399 13.6977 2.67956 13.6107 2.58258C13.4105 2.35927 13.1454 2.20572 12.8535 2.14343C12.7273 2.11648 12.5609 2.11442 12.2634 2.16887ZM12.0383 0.939294C12.4125 0.870822 12.7616 0.845651 13.1145 0.920967C13.6656 1.03859 14.165 1.32831 14.5414 1.74809C14.7822 2.01665 14.9347 2.33209 15.0626 2.69121C15.1861 3.03809 15.3025 3.47433 15.4446 4.00714L17.5704 11.9736C17.7125 12.5064 17.829 12.9427 17.8947 13.3051C17.9628 13.6803 17.9877 14.0298 17.913 14.3828C17.7962 14.9346 17.5084 15.4355 17.0902 15.8135C16.8226 16.0556 16.5079 16.209 16.1498 16.3376C15.8041 16.4617 15.3695 16.5786 14.839 16.7213L14.7884 16.7349C14.2581 16.8776 13.8234 16.9946 13.4623 17.0607C13.0882 17.1292 12.739 17.1543 12.3862 17.079C11.8351 16.9614 11.3356 16.6717 10.9592 16.2519C10.7184 15.9833 10.5659 15.6679 10.4381 15.3088C10.3146 14.9619 10.1982 14.5257 10.056 13.9929L7.93026 6.02633C7.78808 5.49351 7.67167 5.05728 7.6059 4.6949C7.53779 4.31966 7.51289 3.97019 7.5876 3.61722C7.70441 3.06542 7.99225 2.56449 8.41039 2.18643C8.67808 1.94439 8.99269 1.79098 9.35083 1.66242C9.6965 1.53833 10.1311 1.42139 10.6616 1.27868L10.7121 1.26507C11.2425 1.12235 11.6772 1.00539 12.0383 0.939294Z" fill="#434956"/>
<path fill-rule="evenodd" clip-rule="evenodd" d="M13.0135 13.1285C12.8944 12.6839 13.1582 12.227 13.6028 12.1078L13.61 12.1059C14.0546 11.9868 14.5115 12.2506 14.6306 12.6952C14.7498 13.1397 14.4859 13.5967 14.0414 13.7158L14.0342 13.7177C13.5896 13.8368 13.1327 13.573 13.0135 13.1285Z" fill="#434956"/>
<path fill-rule="evenodd" clip-rule="evenodd" d="M15.0143 3.8162C15.1158 4.14611 14.9307 4.49585 14.6008 4.59737L9.18398 6.26419C8.85407 6.36571 8.50433 6.18056 8.40281 5.85065C8.30129 5.52074 8.48644 5.171 8.81635 5.06948L14.2331 3.40266C14.563 3.30114 14.9128 3.48629 15.0143 3.8162Z" fill="#434956"/>
</svg>
