<svg width="265" height="265" xmlns="http://www.w3.org/2000/svg" xmlns:svg="http://www.w3.org/2000/svg">
 <g class="layer">
  <title>Layer 1</title>
  <rect fill="#ffffff" height="138.24" id="svg_4" transform="matrix(1 0 0 1 0 0)" width="133.23" x="63.84" y="60.08"/>
  <circle cx="132.5" cy="132.5" fill="#0937c3" id="svg_1" r="132.5" transform="matrix(1 0 0 1 0 0)"/>
  <rect fill="#ffffff" height="188.05" id="svg_5" rx="64" ry="64" width="188.51" x="38.35" y="36.95"/>
  <path d="m25.28,165l0,2.87c0,14.07 3.32,27.37 9.22,39.18l24.07,-56.34l-33.29,14.3z" fill="#0937c3" id="svg_2"/>
  <path d="m160.16,29.57l-57.74,0c-40.13,0 -72.67,32.81 -72.67,73.25l0,41.71l29.78,-13.02c3.55,-1.56 7.64,-0.78 10.4,1.97c2.74,2.75 3.55,6.86 2.05,10.46l-14.97,35.71l67.31,-83.01l10.79,6.86l-27.78,59.28l69.62,-70.19l-22.45,0l0,-12.96l44.38,0l0,44.75l-12.85,0l0,-22.63l-83.55,84.24c-3.3,3.33 -8.28,3.75 -12.09,1.05c-3.81,-2.7 -5.08,-7.58 -3.1,-11.83l13.81,-29.48l-52.39,64.63c13.28,14.71 32.44,23.94 53.73,23.94l57.74,0c40.12,0 72.65,-32.81 72.65,-73.27l0,-58.22c0,-40.45 -32.54,-73.25 -72.65,-73.25z" fill="#0937c3" id="svg_3"/>
 </g>
</svg>