<svg width="16" height="18" viewBox="0 0 16 18" fill="none" xmlns="http://www.w3.org/2000/svg">
<path fill-rule="evenodd" clip-rule="evenodd" d="M6.75636 1.29197C6.87124 1.61747 6.7005 1.97447 6.37501 2.08936L5.82287 2.28423C4.73499 2.66819 3.96828 2.93977 3.39355 3.2186C2.83312 3.4905 2.51261 3.74335 2.28941 4.05882C2.06621 4.37429 1.93445 4.76068 1.86457 5.37965C1.79292 6.01442 1.79199 6.82781 1.79199 7.98146V10.0185C1.79199 11.1722 1.79292 11.9856 1.86457 12.6203C1.93445 13.2393 2.06621 13.6257 2.28941 13.9412C2.51261 14.2566 2.83312 14.5095 3.39355 14.7814C3.96828 15.0602 4.73499 15.3318 5.82287 15.7157L6.375 15.9106C6.7005 16.0255 6.87124 16.3825 6.75636 16.708C6.64148 17.0335 6.28448 17.2042 5.95898 17.0894L5.37159 16.882C4.32702 16.5134 3.49349 16.2192 2.84792 15.906C2.18082 15.5823 1.65798 15.2129 1.26898 14.6631C0.879981 14.1133 0.705638 13.4973 0.622463 12.7605C0.541974 12.0475 0.541982 11.1636 0.541992 10.0559V7.94404C0.541982 6.83634 0.541974 5.95243 0.622463 5.23943C0.705638 4.50264 0.879981 3.88667 1.26898 3.33685C1.65798 2.78704 2.18082 2.41762 2.84792 2.09397C3.49348 1.78078 4.327 1.4866 5.37156 1.11794L5.95898 0.910618C6.28448 0.795736 6.64148 0.966475 6.75636 1.29197Z" fill="#434956"/>
<path fill-rule="evenodd" clip-rule="evenodd" d="M11.9688 6.48104C12.2094 6.23352 12.6051 6.2279 12.8526 6.46848C12.9287 6.5424 13.0802 6.66375 13.3064 6.84141C13.3227 6.85428 13.3394 6.86735 13.3563 6.88061C13.5581 7.039 13.7948 7.22482 14.0207 7.41627C14.2629 7.62144 14.5144 7.85108 14.7099 8.08065C14.8079 8.19569 14.9045 8.32535 14.9791 8.46484C15.0511 8.59938 15.1253 8.78475 15.1253 8.99999C15.1253 9.21523 15.0511 9.4006 14.9791 9.53514C14.9045 9.67463 14.8079 9.80429 14.7099 9.91933C14.5144 10.1489 14.2629 10.3785 14.0207 10.5837C13.7948 10.7751 13.5581 10.961 13.3563 11.1193C13.3394 11.1326 13.3227 11.1457 13.3064 11.1586C13.0802 11.3362 12.9287 11.4576 12.8526 11.5315C12.6051 11.7721 12.2094 11.7665 11.9688 11.5189C11.7282 11.2714 11.7339 10.8757 11.9814 10.6351C12.116 10.5043 12.3303 10.3357 12.5342 10.1755C12.55 10.1632 12.5658 10.1508 12.5817 10.1383C12.7865 9.97751 13.0054 9.80561 13.2126 9.63004C13.2146 9.62836 13.2166 9.62667 13.2186 9.62499H6.16699C5.82181 9.62499 5.54199 9.34517 5.54199 8.99999C5.54199 8.65481 5.82181 8.37499 6.16699 8.37499L13.2186 8.37499C13.2166 8.37331 13.2146 8.37162 13.2126 8.36994C13.0054 8.19437 12.7865 8.02246 12.5817 7.8617C12.5658 7.84921 12.55 7.83679 12.5342 7.82443C12.3303 7.66424 12.116 7.49572 11.9814 7.36483C11.7339 7.12425 11.7282 6.72856 11.9688 6.48104Z" fill="#434956"/>
</svg>
