<svg width="1200" height="1200" viewBox="0 0 1200 1200" fill="none" xmlns="http://www.w3.org/2000/svg">
<rect width="1200" height="1200" rx="600" fill="#0937C3"/>
<path d="M350.168 884.871C338.025 910.556 345.773 939.925 369.015 956.286C392.258 972.647 422.515 970.049 442.627 949.937L951.186 441.378V578.014H1029.39V307.873H759.253V386.08H895.888L472.108 809.861L641.198 451.945L575.578 410.499L165.916 911.599L256.999 696.068C266.189 674.313 261.305 649.539 244.523 632.912C227.762 616.307 202.922 611.623 181.255 621.013L0 699.62V784.865L164.739 713.428L45.6635 995.179C64.0887 1032.41 87.5754 1066.68 115.258 1097.07L434.192 706.946L350.146 884.849L350.168 884.871Z" fill="white"/>
</svg>
