<svg id="ewTfsUEpLCb1" xmlns="http://www.w3.org/2000/svg" xmlns:xlink="http://www.w3.org/1999/xlink" viewBox="0 0 265 265" shape-rendering="geometricPrecision" text-rendering="geometricPrecision"><circle r="132.5" transform="translate(132.5 132.5)" fill="#0937c3"/><path d="M0,82.9162v1.5204c0,7.46,1.76245,14.5106,4.89428,20.7704L17.6477,75.3418L0,82.9162Z" transform="translate(65.5 68.655545)" fill="#fff"/><path d="M84.1284,0h-37.2441C20.9863,0,0,20.9863,0,46.8716v26.6886l19.2093-8.331c2.2957-.9965,4.9269-.5008,6.7065,1.261c1.777,1.7618,2.2956,4.388,1.322,6.6938l-9.653,22.8422L61.004,42.9159l6.9556,4.393-17.9229,37.933L94.9508,40.3253h-14.4807v-8.2878h28.6309v28.6309h-8.288v-14.4807L46.9123,100.089c-2.1304,2.13-5.3388,2.405-7.7997.671-2.4634-1.734-3.2846-4.8457-1.9982-7.571l8.9081-18.8559L12.2181,115.683C20.7931,125.094,33.1485,131,46.8843,131h37.2441C110.011,131,131,110.014,131,84.1157v-37.2441C131,20.9863,110.011,0,84.1284,0Z" transform="translate(65.5 67)" fill="#fff"/></svg>
