<svg width="16" height="18" xmlns="http://www.w3.org/2000/svg" xmlns:svg="http://www.w3.org/2000/svg">
 <g class="layer">
  <title>Layer 1</title>
  <path clip-rule="evenodd" d="m6.76,1.29c0.11,0.33 -0.06,0.68 -0.39,0.8l-0.58,0.19c-1.12,0.39 -1.91,0.66 -2.51,0.94c-0.58,0.27 -0.91,0.52 -1.14,0.84c-0.23,0.31 -0.37,0.7 -0.44,1.32c-0.07,0.63 -0.07,1.45 -0.07,2.6l0,2.04c0,1.15 0,1.97 0.07,2.6c0.07,0.62 0.22,1.01 0.44,1.32c0.23,0.32 0.56,0.57 1.14,0.84c0.6,0.28 1.38,0.55 2.51,0.94l0.58,0.19c0.33,0.12 0.51,0.47 0.39,0.8c-0.12,0.32 -0.5,0.49 -0.83,0.38l-0.61,-0.21c-1.07,-0.37 -1.94,-0.66 -2.6,-0.97c-0.69,-0.33 -1.23,-0.7 -1.63,-1.25c-0.4,-0.55 -0.58,-1.16 -0.67,-1.9c-0.08,-0.71 -0.08,-1.6 -0.08,-2.7l0,-2.12c0,-1.1 0,-1.99 0.08,-2.7c0.09,-0.74 0.27,-1.35 0.67,-1.9c0.4,-0.55 0.94,-0.92 1.63,-1.25c0.66,-0.31 1.53,-0.6 2.6,-0.97l0.61,-0.21c0.33,-0.11 0.7,0.06 0.83,0.38z" fill="#434956" fill-rule="evenodd" id="svg_1"/>
  <path clip-rule="evenodd" d="m12.51,6.48c0.26,-0.25 0.69,-0.25 0.95,-0.01c0.09,0.07 0.25,0.19 0.5,0.37c0.01,0.01 0.03,0.03 0.05,0.04c0.22,0.16 0.47,0.34 0.72,0.54c0.26,0.2 0.53,0.43 0.75,0.66c0.11,0.12 0.21,0.25 0.29,0.38c0.08,0.14 0.16,0.32 0.16,0.54c0,0.22 -0.09,0.4 -0.16,0.54c-0.09,0.13 -0.18,0.26 -0.29,0.38c-0.22,0.23 -0.49,0.46 -0.75,0.66c-0.25,0.2 -0.5,0.38 -0.72,0.54c-0.02,0.01 -0.04,0.03 -0.05,0.04c-0.25,0.18 -0.41,0.3 -0.5,0.37c-0.26,0.24 -0.69,0.24 -0.95,-0.01c-0.26,-0.25 -0.26,-0.64 0.01,-0.88c0.15,-0.14 0.38,-0.3 0.6,-0.46c0.02,-0.02 0.04,-0.03 0.05,-0.04c0.23,-0.16 0.47,-0.33 0.68,-0.51c0,0 0.01,0 0.01,-0.01l-7.64,0c-0.38,0 -0.68,-0.27 -0.68,-0.62c0,-0.35 0.3,-0.63 0.68,-0.63l7.64,0c0,0 -0.01,0 -0.01,0c-0.22,-0.18 -0.46,-0.35 -0.68,-0.51c-0.01,-0.01 -0.03,-0.02 -0.05,-0.04c-0.22,-0.16 -0.44,-0.32 -0.6,-0.46c-0.27,-0.24 -0.27,-0.63 -0.01,-0.88z" fill="#434956" fill-rule="evenodd" id="svg_2"/>
 </g>
</svg>