<svg width="18" height="18" viewBox="0 0 18 18" fill="none" xmlns="http://www.w3.org/2000/svg">
<path fill-rule="evenodd" clip-rule="evenodd" d="M10.292 1.29592C10.1358 1.28697 9.97781 1.29171 9.8197 1.31028C9.37844 1.36212 8.93101 1.5729 8.31563 2.06336C7.69121 2.56103 6.95943 3.29149 5.93505 4.31587L4.31633 5.93459C3.29194 6.95898 2.56149 7.69075 2.06382 8.31517C1.57336 8.93056 1.36258 9.37799 1.31074 9.81925C1.29216 9.97735 1.28743 10.1354 1.29638 10.2915C1.3191 10.6878 1.47258 11.0779 1.84886 11.5904L11.5909 1.8484C11.0783 1.47212 10.6883 1.31864 10.292 1.29592ZM12.5448 2.6623L2.66275 12.5443C3.03912 12.9457 3.49681 13.4039 4.04654 13.9537C5.01259 14.9197 5.69605 15.6015 6.28506 16.0573C6.8603 16.5024 7.28083 16.6793 7.7087 16.7038C7.86483 16.7128 8.02285 16.708 8.18095 16.6895C8.62221 16.6376 9.06964 16.4268 9.68502 15.9364C10.3094 15.4387 11.0412 14.7083 12.0656 13.6839L13.6843 12.0651C14.7087 11.0408 15.4392 10.309 15.9368 9.68457C16.4273 9.06918 16.6381 8.62175 16.6899 8.18049C16.7085 8.02239 16.7132 7.86437 16.7043 7.70824C16.6797 7.28038 16.5028 6.85984 16.0577 6.28461C15.6019 5.69559 14.9202 5.01213 13.9541 4.04609C13.4044 3.49635 12.9461 3.03866 12.5448 2.6623ZM9.67386 0.0688183C9.90334 0.0418589 10.1341 0.0348153 10.3635 0.0479692C11.1409 0.0925412 11.8001 0.427364 12.4806 0.953889C13.1399 1.46411 13.879 2.20315 14.8071 3.13135L14.8689 3.19307C15.7971 4.12125 16.5361 4.86027 17.0463 5.51963C17.5728 6.20007 17.9077 6.85933 17.9522 7.63669C17.9654 7.8661 17.9583 8.09686 17.9314 8.32634C17.8409 9.09672 17.4735 9.76211 16.9143 10.4637C16.3675 11.1497 15.5865 11.9308 14.5961 12.9212L12.9217 14.5956C11.9313 15.586 11.1502 16.3671 10.4641 16.9139C9.76257 17.473 9.09718 17.8404 8.3268 17.9309C8.09732 17.9579 7.86656 17.9649 7.63715 17.9518C6.85979 17.9072 6.20053 17.5724 5.52009 17.0459C4.86072 16.5356 4.1217 15.7966 3.19353 14.8684L3.13181 14.8067C2.20361 13.8785 1.46457 13.1395 0.954347 12.4801C0.427822 11.7997 0.0929991 11.1404 0.0484271 10.363C0.0352732 10.1336 0.0423161 9.90288 0.0692756 9.6734C0.15978 8.90302 0.527179 8.23763 1.08631 7.53609C1.63313 6.85 2.41419 6.06895 3.40463 5.07853L5.07899 3.40416C6.06941 2.41373 6.85046 1.63267 7.53655 1.08585C8.23808 0.526721 8.90348 0.159323 9.67386 0.0688183ZM14.9579 7.77004C15.202 8.01412 15.202 8.40985 14.9579 8.65393L13.1194 10.4925C12.8753 10.7366 12.4796 10.7366 12.2355 10.4925C11.9914 10.2484 11.9914 9.85267 12.2355 9.60859L14.074 7.77004C14.3181 7.52596 14.7138 7.52596 14.9579 7.77004ZM11.5435 11.1845C11.7876 11.4286 11.7876 11.8243 11.5435 12.0684L10.7555 12.8563C10.5114 13.1004 10.1157 13.1004 9.87164 12.8563C9.62756 12.6122 9.62756 12.2165 9.87164 11.9724L10.6596 11.1845C10.9037 10.9404 11.2994 10.9404 11.5435 11.1845Z" fill="#434956"/>
<path fill-rule="evenodd" clip-rule="evenodd" d="M1.70898 17.3333C1.70898 16.9882 1.98881 16.7083 2.33398 16.7083H15.6673C16.0125 16.7083 16.2923 16.9882 16.2923 17.3333C16.2923 17.6785 16.0125 17.9583 15.6673 17.9583H2.33398C1.98881 17.9583 1.70898 17.6785 1.70898 17.3333Z" fill="#434956"/>
</svg>
