<svg width="18" height="18" xmlns="http://www.w3.org/2000/svg" xmlns:svg="http://www.w3.org/2000/svg">
 <g class="layer">
  <title>Layer 1</title>
  <path clip-rule="evenodd" d="m9.1,0.15c0.39,0 0.72,0.32 0.72,0.71l0,16.17c0,0.39 -0.32,0.71 -0.72,0.71c-0.41,0 -0.73,-0.32 -0.73,-0.71l0,-16.17c0,-0.39 0.32,-0.71 0.73,-0.71z" fill="#434956" fill-rule="evenodd" id="svg_1"/>
  <path clip-rule="evenodd" d="m0.15,8.95c0,-0.38 0.32,-0.67 0.72,-0.67l16.35,0c0.4,0 0.72,0.29 0.72,0.67c0,0.38 -0.32,0.68 -0.72,0.68l-16.35,0c-0.4,0 -0.72,-0.3 -0.72,-0.68z" fill="#434956" fill-rule="evenodd" id="svg_2"/>
 </g>
</svg>