<svg width="20" height="20" viewBox="0 0 20 20" fill="none" xmlns="http://www.w3.org/2000/svg">
<path fill-rule="evenodd" clip-rule="evenodd" d="M9.99964 2.25338C10.3448 2.25338 10.6246 2.5332 10.6246 2.87838V17.1216C10.6246 17.4668 10.3448 17.7466 9.99964 17.7466C9.65446 17.7466 9.37464 17.4668 9.37464 17.1216V2.87838C9.37464 2.5332 9.65446 2.25338 9.99964 2.25338Z" fill="#434956"/>
<path fill-rule="evenodd" clip-rule="evenodd" d="M2.25302 10C2.25302 9.65482 2.53285 9.375 2.87802 9.375L17.1213 9.375C17.4664 9.375 17.7463 9.65482 17.7463 10C17.7463 10.3452 17.4664 10.625 17.1213 10.625L2.87802 10.625C2.53285 10.625 2.25302 10.3452 2.25302 10Z" fill="#434956"/>
</svg>
