<svg width="18" height="18" viewBox="0 0 18 18" fill="none" xmlns="http://www.w3.org/2000/svg">
<path fill-rule="evenodd" clip-rule="evenodd" d="M12.2038 13.8013C10.2462 12.6773 7.75476 12.6773 5.79718 13.8013C5.68287 13.8669 5.55963 13.9344 5.432 14.0043C4.97189 14.2562 4.45474 14.5393 4.09352 14.8802C3.8684 15.0927 3.80271 15.2415 3.79351 15.3226C3.78911 15.3615 3.78096 15.497 4.05191 15.7459C4.70837 16.349 5.36042 16.7083 6.14273 16.7083H11.8583C12.6406 16.7083 13.2926 16.349 13.9491 15.7459C14.22 15.497 14.2119 15.3615 14.2075 15.3226C14.1983 15.2415 14.1326 15.0927 13.9075 14.8802C13.5463 14.5393 13.0291 14.2562 12.569 14.0043C12.4414 13.9344 12.3181 13.8669 12.2038 13.8013ZM12.8262 12.7173L12.515 13.2593L12.8262 12.7173C12.8974 12.7581 12.9869 12.8068 13.0894 12.8625C13.5496 13.1126 14.2716 13.505 14.7655 13.9712C15.073 14.2614 15.3911 14.6666 15.4495 15.1818C15.5127 15.7393 15.256 16.2427 14.7948 16.6664C14.0206 17.3777 13.0792 17.9583 11.8583 17.9583H6.14273C4.92178 17.9583 3.98044 17.3777 3.20625 16.6664C2.74502 16.2427 2.48827 15.7393 2.55147 15.1818C2.60987 14.6666 2.92799 14.2614 3.23552 13.9712C3.72943 13.505 4.45138 13.1126 4.91165 12.8625C5.01412 12.8068 5.10363 12.7581 5.17476 12.7173C7.51778 11.372 10.4832 11.372 12.8262 12.7173Z" fill="#434956"/>
<path fill-rule="evenodd" clip-rule="evenodd" d="M9.00065 5.04166C7.735 5.04166 6.70898 6.06767 6.70898 7.33332C6.70898 8.59898 7.735 9.62499 9.00065 9.62499C10.2663 9.62499 11.2923 8.59898 11.2923 7.33332C11.2923 6.06767 10.2663 5.04166 9.00065 5.04166ZM5.45898 7.33332C5.45898 5.37731 7.04464 3.79166 9.00065 3.79166C10.9567 3.79166 12.5423 5.37731 12.5423 7.33332C12.5423 9.28933 10.9567 10.875 9.00065 10.875C7.04464 10.875 5.45898 9.28933 5.45898 7.33332Z" fill="#434956"/>
<path fill-rule="evenodd" clip-rule="evenodd" d="M9.00033 1.29166C4.74104 1.29166 1.29199 4.73166 1.29199 8.97046C1.29199 10.0782 1.52706 11.1296 1.94967 12.0792C2.09001 12.3946 1.94814 12.764 1.63278 12.9043C1.31742 13.0447 0.947997 12.9028 0.807654 12.5874C0.315267 11.481 0.0419922 10.2567 0.0419922 8.97046C0.0419922 4.03713 4.05487 0.0416565 9.00033 0.0416565C13.9458 0.0416565 17.9587 4.03713 17.9587 8.97046C17.9587 10.2567 17.6854 11.481 17.193 12.5874C17.0527 12.9028 16.6832 13.0447 16.3679 12.9043C16.0525 12.764 15.9106 12.3946 16.051 12.0792C16.4736 11.1296 16.7087 10.0782 16.7087 8.97046C16.7087 4.73166 13.2596 1.29166 9.00033 1.29166Z" fill="#434956"/>
</svg>
