<svg width="1142" height="104" viewBox="0 0 1142 104" fill="none" xmlns="http://www.w3.org/2000/svg">
<g opacity="0.2">
<path d="M523.036 165.894C463.721 142.671 434.463 75.76 457.687 16.4447" stroke="#86FAF3" stroke-width="0.918151" stroke-linecap="round"/>
<path d="M928.806 200.845C850.177 401.674 623.631 500.735 422.803 422.106" stroke="#86FAF3" stroke-width="0.918151" stroke-linecap="round"/>
<path d="M713.891 164.011C772.228 81.8314 752.9 -32.0801 670.72 -90.417C588.54 -148.754 474.628 -129.425 416.292 -47.2454" stroke="#86FAF3" stroke-width="0.918151" stroke-linecap="round"/>
<path d="M241.801 153.934C189.106 -24.5401 291.07 -211.94 469.544 -264.635" stroke="#86FAF3" stroke-width="0.918151" stroke-linecap="round"/>
<path d="M461.397 -191.373C323.391 -134.077 257.963 24.2459 315.259 162.251C372.555 300.257 530.877 365.685 668.883 308.389" stroke="#86FAF3" stroke-width="0.918151" stroke-linecap="round"/>
<path d="M641.049 23.8471C636.174 13.0394 629.056 3.39202 620.167 -4.45483C611.279 -12.3017 600.823 -18.1686 589.494 -21.6663C578.165 -25.1641 566.222 -26.2126 554.457 -24.7424" stroke="#86FAF3" stroke-width="0.918151" stroke-linecap="round"/>
<path d="M595.297 28.2824C587.444 20.2917 576.766 15.7054 565.564 15.5113C554.362 15.3172 543.532 19.5308 535.406 27.2446" stroke="#86FAF3" stroke-width="0.918151" stroke-linecap="round"/>
<path d="M871.555 235.434C773.834 404.691 557.405 462.683 388.148 364.962C218.89 267.241 160.898 50.8128 258.619 -118.445" stroke="#86FAF3" stroke-width="0.918151" stroke-linecap="round"/>
<path d="M876.498 58.4946C876.498 230.483 737.074 369.908 565.085 369.908C393.096 369.908 253.672 230.483 253.672 58.4946" stroke="#86FAF3" stroke-width="0.918151" stroke-linecap="round"/>
<path d="M927.4 267.676C1042.93 67.5761 974.368 -188.291 774.268 -303.818C574.168 -419.346 318.301 -350.787 202.774 -150.687" stroke="#86FAF3" stroke-width="0.918151" stroke-linecap="round"/>
<path d="M927.353 58.4945C927.353 -141.58 765.16 -303.772 565.086 -303.772" stroke="#86A0FA" stroke-width="0.918151" stroke-linecap="round"/>
<path d="M942.033 58.4946C942.033 266.676 773.268 435.441 565.087 435.441C356.905 435.441 188.141 266.676 188.141 58.4946" stroke="#86FAF3" stroke-width="0.918151" stroke-linecap="round"/>
<path d="M772.35 -63.7675C704.827 -178.236 557.293 -216.293 442.824 -148.769C328.356 -81.2459 290.299 66.2879 357.823 180.757" stroke="#86FAF3" stroke-width="0.918151" stroke-linecap="round"/>
<path d="M739.046 353.399C576.174 449.475 366.256 395.326 270.181 232.455C174.105 69.5833 228.254 -140.335 391.125 -236.41" stroke="#7B8085" stroke-opacity="0.5" stroke-width="0.918151" stroke-linecap="round"/>
<path d="M663.765 225.78C571.376 280.279 452.3 249.563 397.8 157.174C343.301 64.7846 374.017 -54.292 466.407 -108.791" stroke="#86A0FA" stroke-width="0.918151" stroke-linecap="round"/>
<path d="M902.313 286.354C776.47 472.599 523.472 521.565 337.227 395.722C150.982 269.879 102.016 16.8809 227.859 -169.364" stroke="#86A0FA" stroke-width="0.918151" stroke-linecap="round"/>
<path d="M801.709 -81.0477C878.825 49.6822 835.362 218.174 704.632 295.29" stroke="#86A0FA" stroke-width="1.29917" stroke-linecap="round"/>
<path d="M647.152 10.0861C673.887 55.4089 658.819 113.824 613.496 140.559C568.173 167.294 509.759 152.226 483.023 106.903" stroke="#7B8085" stroke-opacity="0.5" stroke-width="0.918151" stroke-linecap="round"/>
<path d="M674.812 -6.23131C710.559 54.3688 690.411 132.474 629.811 168.221C569.211 203.968 491.106 183.821 455.359 123.22" stroke="#86FAF3" stroke-width="0.918151" stroke-linecap="round"/>
<path d="M642.779 190.2C570.04 233.108 476.29 208.925 433.383 136.186C390.475 63.4469 414.658 -30.3031 487.397 -73.2107" stroke="#86A0FA" stroke-width="0.918151" stroke-linecap="round"/>
<circle cx="565.086" cy="58.4945" r="440.906" stroke="#86FAF3" stroke-width="0.918151" stroke-linecap="round"/>
<path d="M942.033 58.4945C942.033 -149.687 773.268 -318.452 565.087 -318.452C356.905 -318.452 188.141 -149.687 188.141 58.4945" stroke="#86A0FA" stroke-width="0.918151" stroke-linecap="round"/>
<path d="M565.085 355.228C401.204 355.228 268.352 222.376 268.352 58.4945C268.352 -105.387 401.204 -238.239 565.085 -238.239" stroke="#7B8085" stroke-opacity="0.5" stroke-width="0.918151" stroke-linecap="round"/>
<path d="M565.085 508.838C316.368 508.838 114.742 307.212 114.742 58.4945C114.742 -190.223 316.368 -391.849 565.085 -391.849" stroke="#86A0FA" stroke-width="0.918151" stroke-linecap="round"/>
<path d="M643.244 -233.192C804.338 -190.027 899.939 -24.4424 856.774 136.652C813.609 297.746 648.024 393.346 486.93 350.181" stroke="#7B8085" stroke-opacity="0.5" stroke-width="0.918151" stroke-linecap="round"/>
<path d="M643.244 -233.192C804.338 -190.027 899.939 -24.4424 856.774 136.652C813.609 297.746 648.024 393.346 486.93 350.181" stroke="#7B8085" stroke-opacity="0.5" stroke-width="0.918151" stroke-linecap="round"/>
<path d="M967.196 58.4946C967.196 -163.585 787.165 -343.616 565.085 -343.616C343.006 -343.616 162.975 -163.585 162.975 58.4946" stroke="#7B8085" stroke-opacity="0.5" stroke-width="0.918151" stroke-linecap="round"/>
<path d="M967.196 58.4946C967.196 -163.585 787.165 -343.616 565.085 -343.616C343.006 -343.616 162.975 -163.585 162.975 58.4946" stroke="#7B8085" stroke-opacity="0.5" stroke-width="0.918151" stroke-linecap="round"/>
<path d="M308.203 -61.3993C374.242 -203.14 542.68 -264.509 684.421 -198.47C826.162 -132.432 887.531 36.0068 821.492 177.748" stroke="#86FAF3" stroke-width="0.918151" stroke-linecap="round"/>
<path d="M636.255 181.571C704.083 142.41 727.323 55.6782 688.162 -12.1501C649.002 -79.9785 562.27 -103.218 494.441 -64.0575" stroke="#86FAF3" stroke-width="0.918151" stroke-linecap="round"/>
<path d="M780.558 58.7567C780.558 177.614 684.205 273.967 565.347 273.967C446.49 273.967 350.137 177.614 350.137 58.7567" stroke="#86FAF3" stroke-width="0.918151" stroke-linecap="round"/>
<path d="M693.559 337.912C539.124 408.912 356.372 341.274 285.371 186.838" stroke="#7B8085" stroke-opacity="0.5" stroke-width="0.918151" stroke-linecap="round"/>
<path d="M277.431 -223.852C433.471 -382.822 688.838 -385.197 847.808 -229.157" stroke="#7B8085" stroke-opacity="0.5" stroke-width="0.918151" stroke-linecap="round"/>
<path d="M636.472 213.763C550.758 253.169 449.328 215.629 409.922 129.915C370.515 44.2003 408.055 -57.23 493.77 -96.6363" stroke="#7B8085" stroke-opacity="0.5" stroke-width="0.918151" stroke-linecap="round"/>
<path d="M520.195 -38.8405C573.941 -63.55 637.543 -40.0108 662.252 13.7359" stroke="#7B8085" stroke-opacity="0.5" stroke-width="0.918151" stroke-linecap="round"/>
<path d="M578.053 86.4717C593.399 79.4168 600.119 61.2575 593.064 45.9119" stroke="#7B8085" stroke-opacity="0.5" stroke-width="0.918151" stroke-linecap="round"/>
<path d="M564.857 118.785C531.415 118.803 504.29 91.7078 504.272 58.2656" stroke="#86A0FA" stroke-width="0.918151" stroke-linecap="round"/>
<path d="M559.844 76.412C549.863 73.7377 543.941 63.4789 546.615 53.4984C549.289 43.5178 559.548 37.5949 569.528 40.2692" stroke="#86A0FA" stroke-width="0.918151" stroke-linecap="round"/>
<path d="M355.193 -37.3031C408.161 -153.194 545.048 -204.203 660.938 -151.236C776.829 -98.2682 827.839 38.6186 774.871 154.509" stroke="#86A0FA" stroke-width="0.918151" stroke-linecap="round"/>
<path d="M475.071 -253.161C647.194 -302.767 826.942 -203.448 876.548 -31.3243C926.154 140.799 826.834 320.546 654.711 370.153" stroke="#86A0FA" stroke-width="0.918151" stroke-linecap="round"/>
<path d="M551.754 12.3835C526.073 19.7849 511.254 46.6036 518.655 72.2849C526.057 97.9662 552.875 112.785 578.557 105.384" stroke="#86A0FA" stroke-width="0.918151" stroke-linecap="round"/>
<path d="M565.071 420.531C765.103 420.564 927.289 258.434 927.322 58.4016" stroke="#86A0FA" stroke-width="0.918151" stroke-linecap="round"/>
<path d="M564.944 311.784C425.064 311.76 311.687 198.346 311.711 58.4655C311.734 -81.4149 425.149 -194.791 565.029 -194.768" stroke="#86A0FA" stroke-width="0.918151" stroke-linecap="round"/>
<path d="M666.306 -11.4529C704.272 43.7875 689.655 119.768 633.658 158.254" stroke="#354389" stroke-width="0.918151" stroke-linecap="round"/>
<path d="M760.057 -328.721C970.998 -222.401 1054.63 37.1336 946.852 250.965C839.075 464.795 580.703 551.95 369.762 445.629" stroke="#354389" stroke-width="0.918151" stroke-linecap="round"/>
<path d="M732.174 -56.6957C794.755 34.3592 770.661 159.601 678.359 223.039C586.057 286.477 460.499 264.089 397.918 173.035" stroke="#354389" stroke-width="0.918151" stroke-linecap="round"/>
<path d="M845.567 -7.20204C809.627 -160.011 654.92 -254.352 500.018 -217.92" stroke="#354389" stroke-width="0.918151" stroke-linecap="round"/>
<path d="M653.687 58.4946C653.687 40.1808 648.012 22.3169 637.443 7.36085C626.874 -7.59523 611.929 -18.9086 594.666 -25.0227C577.403 -31.1368 558.67 -31.7511 541.043 -26.7813C523.416 -21.8114 507.763 -11.5015 496.236 2.72994" stroke="#86A0FA" stroke-width="0.918151" stroke-linecap="round"/>
</g>
</svg>
