<svg width="20" height="21" viewBox="0 0 20 21" fill="none" xmlns="http://www.w3.org/2000/svg">
<rect y="0.5" width="20" height="20" rx="10" fill="#34AADF"/>
<path d="M5.56404 10.1457C5.56404 10.1457 9.63298 8.43193 11.0441 7.82847C11.5851 7.5871 13.4197 6.81467 13.4197 6.81467C13.4197 6.81467 14.2664 6.47676 14.1958 7.29743C14.1723 7.63538 13.9841 8.81811 13.796 10.0974C13.5137 11.9078 13.208 13.8871 13.208 13.8871C13.208 13.8871 13.1609 14.4422 12.7611 14.5388C12.3613 14.6353 11.7027 14.2009 11.5851 14.1043C11.491 14.0319 9.82112 12.9457 9.20961 12.4147C9.04497 12.2698 8.85682 11.9802 9.23311 11.6423C10.0798 10.8457 11.0912 9.85606 11.7027 9.22848C11.985 8.93881 12.2672 8.26296 11.0912 9.08363C9.42129 10.2664 7.7749 11.3767 7.7749 11.3767C7.7749 11.3767 7.39858 11.6181 6.69299 11.4009C5.98737 11.1836 5.16417 10.894 5.16417 10.894C5.16417 10.894 4.59973 10.5319 5.56404 10.1457Z" fill="white"/>
</svg>
